# xmcd
#
# Track frame offsets: 
#        150
#        19700
#        36875
#        49238
#        64323
#        80173
#        95496
#        114019
#        128207
#        146162
#        159135
#
# Disc length: 2386 seconds
#
# Revision: 0
# Processed by: cddbd v1.5.1PL0 Copyright (c) Steve Scherf et al.
# Submitted via: ExactAudioCopy v0.95a5
#
DISCID=9009500b
DTITLE=Amy Farris - Anyway
DYEAR=2004
DGENRE=Country
TTITLE0=Drivin' All Night Long
TTITLE1=Heading East
TTITLE2=Undecided
TTITLE3=Anyway
TTITLE4=Pretty Dresses
TTITLE5=My Heart's Too Easy To Break
TTITLE6=Poor Girl
TTITLE7=Hard To Say
TTITLE8=No Exit
TTITLE9=Big Louise
TTITLE10=Let Go
EXTD=
EXTT0=
EXTT1=
EXTT2=
EXTT3=
EXTT4=
EXTT5=
EXTT6=
EXTT7=
EXTT8=
EXTT9=
EXTT10=
PLAYORDER=
